HIERARCHY
ROOT Hips
{
	OFFSET 0.000000 0.000000 0.000000 
	CHANNELS 6 Xposition Yposition Zposition Zrotation Yrotation Xrotation
	JOINT LeftUpLeg
	{
		OFFSET 1.363060 -1.794630 0.839290 
		CHANNELS 3 Zrotation Yrotation Xrotation
		JOINT LeftLeg
		{
			OFFSET 2.448110 -6.726130 0.000000 
			CHANNELS 3 Zrotation Yrotation Xrotation
			JOINT LeftFoot
			{
				OFFSET 2.562200 -7.039590 0.000000 
				CHANNELS 3 Zrotation Yrotation Xrotation
				JOINT LeftToeBase
				{
					OFFSET 0.157640 -0.433110 2.322550 
					CHANNELS 3 Zrotation Yrotation Xrotation
					End Site
					{
						OFFSET 0.000000 0.000000 0.000000 
					}
				}
			}
		}
	}
	JOINT RightUpLeg
	{
		OFFSET -1.305520 -1.794630 0.839290 
		CHANNELS 3 Zrotation Yrotation Xrotation
		JOINT RightLeg
		{
			OFFSET -2.542530 -6.985550 0.000000 
			CHANNELS 3 Zrotation Yrotation Xrotation
			JOINT RightFoot
			{
				OFFSET -2.568260 -7.056230 0.000000 
				CHANNELS 3 Zrotation Yrotation Xrotation
				JOINT RightToeBase
				{
					OFFSET -0.164730 -0.452590 2.363150 
					CHANNELS 3 Zrotation Yrotation Xrotation
					End Site
					{
						OFFSET 0.000000 0.000000 0.000000 
					}
				}
			}
		}
	}
	JOINT Spine
	{
		OFFSET 0.028270 2.035590 -0.193380 
		CHANNELS 3 Zrotation Yrotation Xrotation
		JOINT Spine1
		{
			OFFSET 0.056720 2.048850 -0.042750 
			CHANNELS 3 Zrotation Yrotation Xrotation
			JOINT Neck1
			{
				OFFSET -0.054170 1.746240 0.172020 
				CHANNELS 3 Zrotation Yrotation Xrotation
				JOINT Head
				{
					OFFSET 0.104070 1.761360 -0.123970 
					CHANNELS 3 Zrotation Yrotation Xrotation
					End Site
					{
						OFFSET 0.000000 0.000000 0.000000 
					}
				}
			}
			JOINT LeftArm
			{
				OFFSET 3.362410 1.200890 -0.311210 
				CHANNELS 3 Zrotation Yrotation Xrotation
				JOINT LeftForeArm
				{
					OFFSET 4.983000 -0.000000 -0.000000 
					CHANNELS 3 Zrotation Yrotation Xrotation
					JOINT LeftHand
					{
						OFFSET 3.483560 -0.000000 -0.000000 
						CHANNELS 3 Zrotation Yrotation Xrotation
						JOINT LeftHandIndex1
						{
							OFFSET 0.715260 -0.000000 -0.000000 
							CHANNELS 3 Zrotation Yrotation Xrotation
							End Site
							{
								OFFSET 0.000000 0.000000 0.000000 
							}
						}
					}
				}
			}
			JOINT RightArm
			{
				OFFSET -3.136600 1.374050 -0.404650 
				CHANNELS 3 Zrotation Yrotation Xrotation
				JOINT RightForeArm
				{
					OFFSET -5.241900 -0.000000 -0.000000 
					CHANNELS 3 Zrotation Yrotation Xrotation
					JOINT RightHand
					{
						OFFSET -3.444170 -0.000000 -0.000000 
						CHANNELS 3 Zrotation Yrotation Xrotation
						JOINT RightHandIndex1
						{
							OFFSET -0.622530 -0.000000 -0.000000 
							CHANNELS 3 Zrotation Yrotation Xrotation
							End Site
							{
								OFFSET 0.000000 0.000000 0.000000 
							}
						}
					}
				}
			}
		}
	}
}
MOTION
Frames: 12
Frame Time: 0.041667
7.788935 17.788681 6.660354 6.252099 -87.403188 3.676237 -32.392642 -17.631883 -14.971923 -12.328519 8.334769 13.162256 -0.536227 5.178378 1.855570 11.104400 -17.985800 -63.120200 27.614567 13.078644 11.155553 11.889032 -2.413052 12.047189 -1.719537 -8.493598 -29.001918 -0.365100 3.881600 -10.743700 1.813575 0.432748 -5.034389 3.034296 0.205761 -15.528665 -4.606584 -0.893491 18.590239 -4.985300 -2.861000 17.394300 -91.830577 10.983694 11.801442 25.002932 -37.532882 -10.003573 -1.089716 1.770429 7.965021 -7.125000 0.000000 0.000000 65.873146 10.868303 34.850124 -117.969714 51.145694 -84.219796 1.506654 -0.459110 -10.735011 7.125000 0.000000 0.000000 
7.839757 17.791026 6.599144 3.566960 -86.800177 6.503079 -31.902263 -18.127543 -15.207807 -12.337937 8.289221 12.913302 -0.562548 5.407863 2.172937 11.118500 -17.992600 -63.165800 28.391627 13.339861 11.838571 12.212827 -1.934547 10.922675 -1.780592 -9.228836 -30.341847 -0.328200 3.682000 -10.183700 1.849228 0.506462 -5.044125 3.149920 0.275587 -15.527485 -4.475947 -0.363355 18.460227 -4.892400 -2.588300 17.361600 -91.924516 10.908757 12.047207 24.977563 -37.563273 -10.016305 -1.053665 1.789685 6.966073 -7.125000 0.000000 0.000000 66.640927 10.170193 34.759742 -117.588839 51.297712 -83.743275 1.518958 -0.557327 -10.342858 7.125000 0.000000 0.000000 
7.894712 17.795159 6.525201 1.055373 -86.351934 9.118698 -31.254053 -18.358020 -15.482872 -12.321157 8.218246 12.653382 -0.580922 5.619170 2.754731 11.099700 -17.983500 -63.104900 29.241169 13.682525 12.466195 12.502697 -1.501841 9.870148 -1.907256 -9.654023 -31.540503 -0.265400 3.313900 -9.153900 1.814373 0.813735 -5.058560 2.959187 0.425078 -15.627312 -4.300211 0.069936 18.359311 -4.808300 -2.311700 17.371000 -91.625477 10.657373 12.581669 24.826762 -37.427392 -9.941040 -1.046072 1.788260 6.428079 -7.125000 0.000000 0.000000 67.516770 9.261105 34.525301 -116.717563 51.573986 -82.825599 1.548914 -0.642111 -10.434493 7.125000 0.000000 0.000000 
7.953800 17.812584 6.452486 -2.182594 -85.599163 12.260922 -30.524371 -18.780491 -15.435910 -12.292861 8.085597 12.354734 -0.612462 5.884174 3.321688 11.079600 -17.973800 -63.039900 30.432513 13.906445 13.408045 12.797926 -1.061800 8.815486 -2.279144 -9.598907 -33.150856 -0.141500 2.424000 -6.678900 1.594185 1.048786 -4.789489 1.558381 0.354314 -14.117668 -3.900039 0.113858 18.109452 -4.589900 -2.105100 17.303900 -90.302655 9.076152 13.300274 24.274859 -36.841380 -9.682153 -1.061986 1.736743 6.268692 -7.125000 0.000000 0.000000 68.893836 9.369647 34.072893 -114.862467 52.107152 -80.913615 1.642651 -0.746597 -10.768663 7.125000 0.000000 0.000000 
8.020706 17.829450 6.391500 -3.766852 -84.514271 13.656162 -30.043727 -19.582840 -15.405291 -12.284592 8.049696 12.188984 -0.630879 6.037280 3.614585 11.108300 -17.987700 -63.132800 31.533186 14.099958 14.486773 13.136395 -0.488315 7.586004 -2.435690 -10.529990 -34.908315 -0.119900 2.232300 -6.148200 1.612193 1.038802 -4.840809 1.563018 0.341117 -14.512196 -3.670961 0.615523 18.005045 -4.360300 -1.860200 17.207600 -90.479340 8.943822 13.473563 23.883069 -36.552310 -9.522959 -1.032073 1.751863 6.312931 -7.125000 0.000000 0.000000 69.136289 7.995286 34.941929 -112.418589 52.707106 -78.330068 1.725038 -0.862531 -11.411977 7.125000 0.000000 0.000000 
8.093309 17.837827 6.325264 -4.562259 -83.494004 14.438871 -29.569198 -20.287904 -15.599907 -12.281125 8.031234 11.987925 -0.619568 6.158720 4.318780 11.061800 -17.965200 -62.982000 32.584389 14.605355 15.410069 13.444628 0.047595 6.390594 -2.608052 -11.467746 -36.696445 -0.077800 1.799300 -4.951300 1.523156 1.180969 -4.825843 1.045789 0.351644 -14.416630 -3.458448 0.876256 17.820652 -4.206600 -1.661800 17.133200 -90.004092 8.284657 14.260199 23.315108 -36.038868 -9.248293 -1.033172 1.737883 6.390170 -7.125000 0.000000 0.000000 69.510952 7.012049 35.602420 -109.067394 53.458582 -74.874840 1.840776 -1.039192 -11.617500 7.125000 0.000000 0.000000 
8.169932 17.844082 6.245959 -5.862192 -82.567550 15.775296 -28.849570 -20.790941 -15.889591 -12.256867 7.985784 11.733101 -0.629969 6.346295 4.776260 11.106000 -17.986600 -63.125200 33.811106 15.414132 16.212412 13.635661 0.389623 5.436763 -3.449943 -10.326674 -39.002808 -0.015600 -0.806200 2.215800 1.419601 1.410377 -4.798458 0.464668 0.399551 -14.224720 -3.302037 1.062629 17.620525 -4.122800 -1.477600 17.004300 -89.384676 7.658308 15.259463 22.792736 -35.540103 -8.957319 -1.073693 1.710585 6.644800 -7.125000 0.000000 0.000000 69.837518 6.173989 36.438231 -105.163291 54.304503 -70.683430 1.930924 -1.193149 -11.539238 7.125000 0.000000 0.000000 
8.248790 17.851342 6.162187 -7.329509 -81.637439 17.216381 -28.057722 -21.336397 -16.063722 -12.222955 7.890978 11.412550 -0.636254 6.611571 5.604250 11.029700 -17.949600 -62.878000 35.171759 16.094840 16.899872 13.910868 0.713597 4.654843 -3.458547 -11.895903 -40.516870 -0.000700 -0.167300 0.459800 1.361790 1.561118 -4.793693 0.126217 0.427418 -14.166051 -3.185954 1.361020 17.413753 -4.024500 -1.282200 16.815900 -89.067604 7.284433 16.025986 22.337775 -35.113155 -8.689232 -1.087767 1.707541 6.887682 -7.125000 0.000000 0.000000 69.893770 5.450415 37.897995 -100.611109 55.225702 -65.828393 2.042129 -1.301385 -11.976573 7.125000 0.000000 0.000000 
8.328877 17.857597 6.078861 -8.678964 -80.707790 18.447536 -27.305075 -21.888362 -16.100222 -12.195448 7.735315 10.998482 -0.668547 7.031569 6.359062 11.006600 -17.938300 -62.802900 36.333493 16.320385 17.340922 14.110094 0.937979 4.079687 -3.509108 -12.970261 -41.671222 -0.001000 0.200400 -0.550500 1.290584 1.711234 -4.820490 -0.301880 0.432365 -14.304233 -3.094351 1.759371 17.258427 -3.902800 -1.068100 16.619500 -88.780248 7.199244 16.893791 21.974747 -34.769902 -8.472446 -1.088663 1.703723 6.953625 -7.125000 0.000000 0.000000 69.902966 4.767812 39.444800 -95.057515 56.314896 -60.115221 2.107394 -1.459631 -12.445308 7.125000 0.000000 0.000000 
8.412090 17.859943 5.989616 -9.821651 -79.797849 19.563371 -26.471143 -22.447828 -16.298962 -12.158859 7.639648 10.647339 -0.717477 7.416516 6.681059 11.098000 -17.982700 -63.099300 37.372853 16.453571 17.483617 14.249795 1.039008 3.698728 -3.622604 -13.570284 -42.620196 -0.000600 0.153700 -0.422300 1.325294 1.653673 -4.741494 -0.133260 0.426536 -13.893745 -3.020226 2.708185 16.978115 -3.717600 -0.696100 16.701900 -88.813879 6.243816 17.235191 21.502822 -34.352689 -8.244765 -1.077760 1.728602 7.233725 -7.125000 0.000000 0.000000 69.377351 5.544301 40.759403 -87.731454 57.549144 -53.152284 2.051147 -1.605053 -12.751217 7.125000 0.000000 0.000000 
8.500331 17.858491 5.893333 -10.662416 -78.946004 20.391617 -25.632113 -22.991752 -16.638574 -12.107770 7.623585 10.423716 -0.728244 7.724335 7.402117 11.020000 -17.944900 -62.846600 38.286018 16.589343 17.435086 14.333088 1.038093 3.488210 -3.849089 -13.543969 -43.432044 -0.003700 -0.393300 1.080700 1.186776 1.954792 -4.765318 -0.815829 0.494728 -13.964860 -3.005171 2.854609 16.822696 -3.718700 -0.552300 16.490300 -88.151342 6.129367 18.735401 21.163213 -34.033374 -8.065792 -1.089638 1.699276 7.309656 -7.125000 0.000000 0.000000 69.619104 5.321019 41.492468 -79.139157 58.537732 -45.660601 1.882416 -1.751686 -11.398532 7.125000 0.000000 0.000000 
8.594491 17.855252 5.796381 -11.008446 -78.118632 20.672917 -24.955487 -23.572890 -16.934044 -12.070430 7.621603 10.225761 -0.733369 7.968152 7.920322 10.979100 -17.924800 -62.713600 39.043328 16.622279 17.379820 14.393198 1.021530 3.341491 -4.100565 -13.383824 -44.212456 -0.015600 -0.807100 2.218100 1.106380 2.117113 -4.771546 -1.145956 0.549359 -14.005126 -3.103684 3.205550 16.631302 -3.780800 -0.359900 16.336400 -87.805085 5.985980 19.970506 20.905362 -33.817288 -7.933897 -1.091733 1.687549 7.263235 -7.125000 0.000000 0.000000 69.585978 5.536350 42.797076 -68.948912 58.486678 -37.479955 1.626687 -1.859575 -7.938277 7.125000 0.000000 0.000000 
